<svg width="26" height="37" viewBox="0 0 26 37" fill="none" xmlns="http://www.w3.org/2000/svg">
    <path d="M17.8031 2.36401C19.5542 1.58364 21.2785 0.741552 23.0466 0C23.2149 0.386204 25.8247 6.17728 26 6.5605C24.6782 7.1627 23.3484 7.75195 22.0335 8.37008C21.8682 8.43279 21.9847 8.6239 21.9867 8.74733C22.4041 10.5619 22.3832 12.4969 21.7865 14.2697C21.1111 16.2823 19.8521 18.1158 18.1547 19.4018C19.8112 20.5136 21.1161 22.158 21.7815 24.0422C22.3035 25.5154 22.3911 27.1239 22.1252 28.6587C21.7925 30.4534 20.9199 32.1316 19.6827 33.4704C16.9225 36.4734 12.4331 37.7017 8.51346 36.6038C5.49926 35.7806 3.00004 33.6067 1.3764 30.9849C0.853444 30.1906 0.485884 29.3127 0.0635372 28.4646C0.297621 28.2347 0.626334 28.163 0.926161 28.0585C2.98311 27.3548 5.03508 26.6322 7.09402 25.9324C7.61298 27.1209 8.37998 28.2447 9.4737 28.9723C10.2287 29.4769 11.176 29.6969 12.0745 29.5377C12.9172 29.4232 13.7788 29.0957 14.3347 28.4248C14.9901 27.6524 14.9911 26.4769 14.516 25.6149C14.0299 24.7997 13.1493 24.3488 12.3215 23.9516C10.4678 23.1056 8.53736 22.4217 6.74438 21.4433C4.70835 20.3693 2.88051 18.8384 1.63538 16.8895C0.413168 14.9953 -0.155604 12.693 0.0366436 10.4484C0.221918 7.48818 1.70212 4.65237 3.97523 2.75519C5.74032 1.26313 7.98154 0.349376 10.2875 0.179167C12.9471 -0.0318515 15.6744 0.753496 17.8031 2.36401ZM10.4339 7.63351C9.35218 7.83756 8.38496 8.55124 7.865 9.51974C7.29722 10.5559 7.28327 11.8718 7.82615 12.9209C8.31722 13.8964 9.25954 14.628 10.3284 14.8609C11.8335 15.2362 13.5139 14.4986 14.3058 13.1767C14.9791 12.1057 15.027 10.6813 14.4333 9.56552C13.7141 8.13418 12.0048 7.31001 10.4339 7.63351Z" fill="#292D32"/>
</svg>
